<?xml version="1.0" standalone="no"?>
<!DOCTYPE svg PUBLIC "-//W3C//DTD SVG 20010904//EN"
 "http://www.w3.org/TR/2001/REC-SVG-20010904/DTD/svg10.dtd">
<svg version="1.0" xmlns="http://www.w3.org/2000/svg"
 width="512.000000pt" height="512.000000pt" viewBox="0 0 512.000000 512.000000"
 preserveAspectRatio="xMidYMid meet">
<metadata>
Created by potrace 1.14, written by Peter Selinger 2001-2017
</metadata>
<g transform="translate(0.000000,512.000000) scale(0.100000,-0.100000)"
fill="#000000" stroke="none">
<path d="M3785 4815 c-44 -7 -253 -52 -465 -99 -212 -48 -394 -88 -405 -90
-11 -3 -49 -11 -85 -20 -36 -8 -76 -17 -90 -19 -14 -3 -43 -10 -65 -15 -34
-10 -128 -30 -214 -48 -12 -3 -53 -12 -90 -20 -36 -9 -73 -17 -81 -19 -210
-44 -404 -91 -436 -105 -126 -55 -157 -225 -59 -322 15 -15 136 -81 269 -147
278 -138 371 -190 554 -312 245 -163 430 -326 661 -579 168 -185 241 -246 376
-313 144 -72 279 -104 451 -104 503 -3 911 368 1002 912 13 77 6 317 -11 397
-49 222 -150 407 -313 570 -79 80 -120 95 -160 57 -43 -41 -33 -71 54 -162
205 -214 293 -436 287 -720 -9 -414 -268 -772 -635 -877 -97 -28 -284 -35
-387 -15 -154 31 -307 109 -417 213 -28 26 -84 86 -125 133 -98 110 -275 284
-381 374 -264 223 -508 376 -914 574 -217 105 -239 123 -212 166 12 18 39 29
98 40 14 3 64 14 110 25 46 11 135 30 198 44 63 13 270 58 460 101 190 42 352
79 360 80 8 2 56 13 105 24 50 12 133 30 185 42 52 11 133 30 180 41 308 73
494 73 707 -2 74 -26 105 -25 131 3 41 44 20 103 -46 128 -52 20 -196 59 -236
65 -89 12 -285 11 -361 -1z"/>
<path d="M420 3850 c-59 -11 -111 -41 -141 -83 -33 -45 -45 -85 -53 -172 -3
-33 -10 -98 -16 -145 -6 -47 -13 -107 -16 -135 -3 -27 -8 -66 -10 -85 -2 -19
-6 -51 -9 -70 -2 -19 -7 -60 -10 -90 -4 -30 -8 -68 -10 -85 -2 -16 -6 -61 -10
-100 -4 -38 -9 -78 -11 -88 -2 -10 -8 -64 -14 -120 -6 -56 -17 -154 -25 -217
-8 -63 -17 -140 -20 -170 -12 -115 -16 -149 -31 -270 -8 -69 -17 -147 -20
-174 -3 -26 -9 -78 -13 -115 -13 -101 -5 -306 14 -396 58 -271 190 -500 392
-679 154 -136 336 -228 545 -278 126 -29 373 -32 498 -5 351 76 627 284 774
585 163 332 142 755 -51 1061 -76 118 -148 196 -318 339 -49 42 -110 94 -135
116 -25 23 -70 61 -100 86 -108 89 -312 286 -421 406 -31 34 -66 67 -78 73
-44 24 -101 -13 -101 -65 0 -38 38 -84 224 -269 141 -140 259 -248 406 -370
222 -184 272 -231 344 -324 163 -212 223 -477 170 -760 -70 -381 -381 -673
-789 -740 -73 -12 -318 -7 -366 7 -19 6 -74 22 -122 37 -373 113 -661 444
-731 840 -12 73 -14 271 -2 360 2 17 6 57 10 90 3 33 8 76 11 95 10 74 26 210
41 345 3 28 7 61 9 75 3 22 8 67 20 180 9 87 17 148 20 170 3 14 7 54 10 90 4
36 8 76 10 90 2 14 6 50 10 80 3 30 8 71 10 90 3 19 7 55 10 80 7 63 16 140
20 170 2 14 7 54 10 90 26 258 41 303 104 303 42 0 54 -13 128 -137 68 -116
196 -311 235 -358 36 -43 91 -43 126 1 22 28 3 73 -87 206 -48 71 -117 179
-151 239 -35 60 -79 124 -98 142 -48 47 -120 67 -192 54z"/>
<path d="M2993 2460 c-36 -12 -86 -58 -109 -102 -26 -51 -19 -113 31 -258 91
-264 158 -523 179 -695 3 -22 8 -56 11 -75 9 -67 14 -116 20 -195 15 -206 32
-286 85 -400 46 -101 70 -122 127 -116 22 2 53 44 53 70 0 14 -12 46 -26 71
-39 68 -71 176 -78 265 -4 44 -9 96 -11 115 -2 19 -7 71 -10 115 -4 43 -8 82
-10 85 -1 3 -6 32 -10 65 -3 33 -10 78 -15 100 -5 22 -11 56 -14 75 -14 93
-74 315 -133 492 -70 211 -74 252 -29 246 21 -3 108 -49 481 -253 33 -18 87
-47 120 -65 160 -86 193 -104 230 -125 22 -12 81 -44 130 -70 174 -92 249
-141 310 -200 132 -127 199 -271 211 -457 19 -266 -124 -520 -359 -637 -102
-51 -178 -69 -287 -65 -105 2 -124 7 -229 49 -70 28 -88 31 -112 23 -33 -11
-49 -35 -49 -71 0 -76 229 -158 428 -152 189 5 349 71 495 205 117 108 199
245 243 405 28 105 26 312 -4 420 -44 152 -127 291 -233 389 -91 85 -137 114
-404 256 -44 24 -84 46 -90 50 -5 4 -55 31 -110 60 -55 29 -118 63 -140 75
-22 12 -65 36 -95 52 -30 16 -149 80 -263 143 -220 119 -260 132 -334 110z"/>
</g>
</svg>
